<svg width="24" height="28" viewBox="0 0 24 28" fill="none" xmlns="http://www.w3.org/2000/svg">
<path id="Vector" d="M16.599 15.208C16.599 12.5733 21.6508 12.344 21.6508 7.19333C21.6508 3.464 18.5898 1.67733 18.2766 1.516H21.3266L24.375 0H14.4964C4.44477 0 2.8348 5.95867 2.8348 7.93333C2.8348 10.8747 5.55113 14.5307 11.0168 14.5307C11.5141 14.5307 12.0429 14.504 12.6032 14.4533C12.5088 14.672 12.1153 15.4213 12.1153 16.0987C12.1153 17.516 13.1855 18.416 13.5553 18.964C7.575 18.9173 0.375 21.1147 0.375 26.004C0.375 27.7907 2.18798 32 10.7084 32C20.428 32 23.3725 26.916 23.3725 24.0667C23.3662 18.6253 16.599 17.724 16.599 15.208V15.208ZM13.2972 13.3907C9.89789 13.3907 7.02733 9.76533 7.02733 5.89067C7.02733 4.74 7.67887 1.396 11.4402 1.396C16.2842 1.396 17.4646 7.47867 17.4646 9.136C17.4646 9.52133 17.7841 13.3907 13.2972 13.3907V13.3907ZM13.0643 30.24C9.94667 30.24 4.56752 29.1147 4.56752 25.1147C4.56752 23.728 5.52123 20.1093 13.7945 20.1093C14.2195 20.1093 14.5877 20.1253 14.9009 20.1507C16.6226 21.24 20.1888 22.812 20.1888 25.708C20.1888 27.0213 19.2665 30.24 13.0643 30.24V30.24Z" fill="black"/>
</svg>
