<svg width="266" height="180" viewBox="0 0 266 180" fill="none" xmlns="http://www.w3.org/2000/svg">
<path d="M236.027 128.105L253.09 125.386C256.102 124.894 258.824 123.041 260.662 120.231C262.499 117.421 263.303 113.883 262.897 110.389L257.427 64.2593C257.004 60.7673 255.405 57.6114 252.981 55.4808C250.557 53.3502 247.503 52.4181 244.488 52.8881L227.429 55.6071" stroke="black" stroke-width="5" stroke-miterlimit="10" stroke-linecap="round" stroke-linejoin="round"/>
<path d="M193.166 42.7222L222.757 38.0036L237.131 159.191L154.67 172.319L146.709 105.203" stroke="black" stroke-width="5" stroke-miterlimit="10" stroke-linecap="round" stroke-linejoin="round"/>
<path d="M133.274 69.1507L133.721 72.9302C134.149 76.5603 136.914 79.1531 139.865 78.6859L142.545 78.2608C143.126 78.1674 143.674 77.9618 144.17 77.6675" stroke="black" stroke-width="5" stroke-miterlimit="10" stroke-linecap="round" stroke-linejoin="round"/>
<path d="M144.17 77.6675C146.209 76.4621 147.475 73.7244 147.128 70.8045L146.508 65.5347C148.277 66.5018 150.248 66.9456 152.284 66.6233L157.556 65.787C160.975 65.2497 163.76 62.7363 165.36 59.3399C168.883 63.9556 174.075 66.5345 179.485 65.6795C188.337 64.278 194.52 54.2149 193.238 43.3155L224.297 38.396C224.647 36.2377 224.728 33.9625 224.454 31.6452C223.164 20.7038 214.913 12.9719 206.028 14.3781C202.32 14.9668 199.095 17.0645 196.685 20.0918C193.262 14.1305 187.353 10.608 181.117 11.5984C178.906 11.9497 176.788 12.8553 174.91 14.252C171.133 9.74369 165.8 7.29564 160.229 8.17862C151.849 9.50542 145.718 17.896 145.189 27.8657C144.152 27.7198 143.103 27.7229 142.065 27.8751C137.438 28.6085 133.697 32.1405 131.807 36.9151" stroke="black" stroke-width="5" stroke-miterlimit="10" stroke-linecap="round" stroke-linejoin="round"/>
<path d="M29.9731 132.776L12.9141 130.057C9.90115 129.567 7.17813 127.714 5.33982 124.904C3.5015 122.094 2.69727 118.556 3.10279 115.061L8.57681 68.9218C9.0011 65.4307 10.5999 62.2759 13.0242 60.1462C15.4485 58.0166 18.5013 57.0852 21.5161 57.5552L38.5751 60.2742" stroke="black" stroke-width="5" stroke-miterlimit="10" stroke-linecap="round" stroke-linejoin="round"/>
<path d="M72.8341 47.394L43.247 42.6754L28.8646 163.863L111.326 177L119.287 109.884" stroke="black" stroke-width="5" stroke-miterlimit="10" stroke-linecap="round" stroke-linejoin="round"/>
<path d="M121.83 82.3393C119.791 81.134 118.529 78.3962 118.871 75.4764L119.496 70.2065C117.702 71.2152 115.693 71.5936 113.716 71.2951L108.443 70.4635C105.025 69.9216 102.244 67.4128 100.64 64.007C97.1205 68.6275 91.9246 71.211 86.5151 70.3514C77.6672 68.9498 71.4797 58.8867 72.7615 47.992L41.7031 43.0725C41.3366 40.8453 41.2835 38.564 41.5459 36.3171C42.8358 25.3756 51.0872 17.6437 59.9714 19.05C63.6798 19.6386 66.9046 21.7363 69.3151 24.7636C72.7414 18.8024 78.6507 15.2798 84.8826 16.2702C87.0936 16.6215 89.2119 17.5271 91.0902 18.9238C94.8713 14.4155 100.2 11.9675 105.771 12.8504C114.155 14.1772 120.282 22.5679 120.81 32.5375C121.848 32.3916 122.897 32.3947 123.934 32.5469C131.339 33.7195 136.471 42.0634 135.394 51.1828L132.278 77.602C131.851 81.2321 129.086 83.8249 126.139 83.3577L123.455 82.9326C122.888 82.842 122.339 82.6415 121.83 82.3393" stroke="black" stroke-width="5" stroke-miterlimit="10" stroke-linecap="round" stroke-linejoin="round"/>
<g filter="url(#filter0_f_26_146)">
<path d="M140.637 69.175L197.121 61.9025L206.54 126.075L150.056 133.35L140.637 69.175Z" fill="#FCEA2B"/>
<path d="M181.163 63.955L176.412 129.947L206.535 126.07L197.116 61.9025L181.163 63.955Z" fill="#F1B31C"/>
<path d="M186.042 49.2575C183.587 49.5725 181.451 50.695 179.855 52.315C177.587 49.125 173.674 47.24 169.545 47.77C168.081 47.9572 166.678 48.441 165.435 49.1875C162.934 46.7775 159.403 45.4675 155.714 45.9375C150.165 46.65 146.105 51.1375 145.758 56.475C145.07 56.3967 144.375 56.3984 143.687 56.48C138.787 57.1075 135.387 61.5725 136.099 66.4525L138.162 80.59C138.445 82.5325 140.276 83.9175 142.23 83.6675L144.005 83.4425C145.959 83.1925 147.323 81.3975 147.04 79.4525L146.629 76.6325C147.8 77.15 149.105 77.3875 150.453 77.215L153.947 76.7675C156.21 76.48 158.052 75.135 159.114 73.3175C161.444 75.7875 164.882 77.1675 168.467 76.71C174.325 75.96 178.422 70.575 177.571 64.7425L198.136 62.11C198.368 60.955 198.421 59.7375 198.242 58.4975C197.386 52.64 191.925 48.505 186.039 49.2575H186.042Z" fill="white"/>
<path d="M142.561 71.76C141.867 67.02 145.283 62.665 150.184 62.0375C150.886 61.9475 151.574 61.9625 152.252 62.025C152.626 56.8375 156.699 52.4575 162.248 51.7475C165.936 51.275 169.459 52.5375 171.952 54.8725C173.172 54.16 174.557 53.6725 176.063 53.4775C180.192 52.9475 184.096 54.7675 186.349 57.86C187.988 56.2283 190.174 55.1714 192.544 54.865C193.517 54.744 194.504 54.7524 195.475 54.89C193.438 51.0525 189.069 48.6675 184.417 49.265C181.961 49.5775 179.826 50.6775 178.225 52.2575C175.969 49.165 172.067 47.345 167.938 47.875C166.477 48.062 165.075 48.5375 163.825 49.27C161.332 46.935 157.812 45.6725 154.121 46.145C148.572 46.855 144.496 51.235 144.125 56.4225C143.438 56.3492 142.745 56.3534 142.059 56.435C137.156 57.0625 133.743 61.4175 134.434 66.16L136.436 79.8975C136.713 81.785 138.536 83.1275 140.49 82.8775L142.265 82.65C142.943 82.5625 143.546 82.285 144.04 81.8925L142.561 71.7625V71.76Z" fill="white"/>
<path d="M68.8343 128.568L78.256 64.3975L134.741 71.6725L125.319 135.843L68.8343 128.568Z" fill="#FCEA2B"/>
<path d="M94.2088 66.455L98.9597 132.448L68.837 128.57L78.2533 64.4025L94.2088 66.455Z" fill="#F1B31C"/>
<path d="M89.3298 51.7575C91.7853 52.0725 93.9205 53.195 95.5166 54.815C97.7853 51.625 101.698 49.74 105.824 50.27C107.288 50.4572 108.691 50.941 109.935 51.6875C112.438 49.2775 115.967 47.9675 119.655 48.4375C125.204 49.15 129.264 53.6375 129.613 58.975C130.301 58.8969 130.995 58.8986 131.682 58.98C136.585 59.6075 139.983 64.0725 139.27 68.9525L137.207 83.09C136.924 85.0325 135.093 86.4175 133.142 86.1675L131.364 85.9425C129.413 85.6925 128.047 83.8975 128.33 81.9525L128.741 79.1325C127.554 79.6718 126.224 79.8743 124.916 79.715L121.425 79.2675C119.162 78.98 117.317 77.635 116.258 75.8175C113.928 78.2875 110.487 79.6675 106.905 79.21C101.047 78.46 96.9499 73.075 97.7986 67.2425L77.2338 64.61C76.9913 63.419 76.9562 62.1991 77.1297 60.9975C77.9838 55.14 83.4473 51.005 89.3298 51.7575Z" fill="white"/>
<path d="M132.811 74.26C133.502 69.52 130.089 65.165 125.186 64.5375C124.5 64.4559 123.806 64.4517 123.12 64.525C122.746 59.3375 118.67 54.9575 113.122 54.2475C109.433 53.775 105.91 55.0375 103.42 57.3725C102.169 56.6402 100.768 56.1647 99.3066 55.9775C95.1777 55.4475 91.2729 57.2675 89.0202 60.36C87.3817 58.7289 85.1966 57.672 82.828 57.365C81.8539 57.2438 80.8664 57.2522 79.8948 57.39C81.9339 53.5525 86.3004 51.1675 90.9526 51.765C93.4081 52.0775 95.5433 53.1775 97.1474 54.7575C99.4001 51.665 103.305 49.845 107.434 50.375C108.894 50.5624 110.295 51.0378 111.544 51.77C114.037 49.435 117.56 48.1725 121.249 48.645C126.798 49.355 130.873 53.735 131.244 58.9225C131.922 58.8575 132.611 58.8475 133.313 58.935C138.216 59.5625 141.629 63.9175 140.938 68.66L138.934 82.3975C138.659 84.285 136.833 85.6275 134.882 85.3775L133.105 85.15C132.449 85.0616 131.833 84.7987 131.332 84.3925L132.811 74.2625V74.26Z" fill="white"/>
<path d="M205.902 110.115L217.2 108.66C219.195 108.397 220.997 107.405 222.214 105.902C223.431 104.398 223.963 102.505 223.694 100.635L220.072 75.95C219.792 74.0813 218.734 72.3925 217.128 71.2524C215.523 70.1123 213.501 69.6135 211.505 69.865L200.209 71.32" stroke="black" stroke-width="2" stroke-miterlimit="10" stroke-linecap="round" stroke-linejoin="round"/>
<path d="M177.523 64.425L197.116 61.9L206.634 126.75L152.033 133.775L146.762 97.86" stroke="black" stroke-width="2" stroke-miterlimit="10" stroke-linecap="round" stroke-linejoin="round"/>
<path d="M137.866 78.5675L138.162 80.59C138.445 82.5325 140.276 83.92 142.23 83.67L144.005 83.4425C144.389 83.3925 144.752 83.2825 145.081 83.125" stroke="black" stroke-width="2" stroke-miterlimit="10" stroke-linecap="round" stroke-linejoin="round"/>
<path d="M145.081 83.125C146.431 82.48 147.269 81.015 147.04 79.4525L146.629 76.6325C147.8 77.15 149.105 77.3875 150.453 77.215L153.944 76.7675C156.208 76.48 158.052 75.135 159.112 73.3175C161.444 75.7875 164.882 77.1675 168.464 76.71C174.325 75.96 178.419 70.575 177.571 64.7425L198.136 62.11C198.368 60.955 198.421 59.7375 198.24 58.4975C197.386 52.6425 191.922 48.505 186.039 49.2575C183.584 49.5725 181.449 50.695 179.853 52.315C177.587 49.125 173.674 47.24 169.545 47.77C168.081 47.958 166.678 48.4426 165.435 49.19C162.934 46.7775 159.403 45.4675 155.714 45.94C150.165 46.65 146.105 51.14 145.756 56.475C145.069 56.3969 144.374 56.3986 143.687 56.48C140.623 56.8725 138.146 58.7625 136.895 61.3175" stroke="black" stroke-width="2" stroke-miterlimit="10" stroke-linecap="round" stroke-linejoin="round"/>
<path d="M69.4669 112.615L58.1715 111.16C56.1766 110.897 54.3735 109.906 53.1563 108.402C51.9391 106.899 51.4066 105.005 51.6751 103.135L55.2997 78.445C55.5806 76.5768 56.6392 74.8886 58.2445 73.749C59.8497 72.6094 61.871 72.111 63.8673 72.3625L75.1626 73.8175" stroke="black" stroke-width="2" stroke-miterlimit="10" stroke-linecap="round" stroke-linejoin="round"/>
<path d="M97.8467 66.925L78.256 64.4L68.7329 129.25L123.333 136.28L128.605 100.365" stroke="black" stroke-width="2" stroke-miterlimit="10" stroke-linecap="round" stroke-linejoin="round"/>
<path d="M130.289 85.625C128.938 84.98 128.103 83.515 128.33 81.9525L128.743 79.1325C127.556 79.6723 126.225 79.8747 124.916 79.715L121.425 79.27C119.162 78.98 117.32 77.6375 116.258 75.815C113.928 78.2875 110.487 79.67 106.905 79.21C101.047 78.46 96.9499 73.075 97.7986 67.245L77.2338 64.6125C76.991 63.4207 76.9559 62.1999 77.1297 60.9975C77.9838 55.1425 83.4473 51.005 89.3298 51.7575C91.7853 52.0725 93.9205 53.195 95.5166 54.815C97.7853 51.625 101.698 49.74 105.824 50.27C107.288 50.458 108.691 50.9426 109.935 51.69C112.438 49.2775 115.967 47.9675 119.655 48.44C125.207 49.15 129.264 53.64 129.613 58.975C130.301 58.8969 130.995 58.8986 131.682 58.98C136.585 59.6075 139.983 64.0725 139.27 68.9525L137.207 83.09C136.924 85.0325 135.093 86.42 133.142 86.17L131.364 85.9425C130.989 85.894 130.626 85.7867 130.289 85.625" stroke="black" stroke-width="2" stroke-miterlimit="10" stroke-linecap="round" stroke-linejoin="round"/>
</g>
<defs>
<filter id="filter0_f_26_146" x="37.4341" y="-4" width="200.17" height="188" filterUnits="userSpaceOnUse" color-interpolation-filters="sRGB">
<feFlood flood-opacity="0" result="BackgroundImageFix"/>
<feBlend mode="normal" in="SourceGraphic" in2="BackgroundImageFix" result="shape"/>
<feGaussianBlur stdDeviation="2" result="effect1_foregroundBlur_26_146"/>
</filter>
</defs>
</svg>
