<svg width="32" height="32" viewBox="0 0 32 32" fill="none" xmlns="http://www.w3.org/2000/svg">
<g id="ei:share-google">
<path id="Vector" d="M9.59999 19.2C7.80799 19.2 6.39999 17.792 6.39999 16C6.39999 14.208 7.80799 12.8 9.59999 12.8C11.392 12.8 12.8 14.208 12.8 16C12.8 17.792 11.392 19.2 9.59999 19.2ZM9.59999 14.08C8.51199 14.08 7.67999 14.912 7.67999 16C7.67999 17.088 8.51199 17.92 9.59999 17.92C10.688 17.92 11.52 17.088 11.52 16C11.52 14.912 10.688 14.08 9.59999 14.08Z" fill="black"/>
<path id="Vector_2" d="M22.4 12.8C20.608 12.8 19.2 11.392 19.2 9.59999C19.2 7.80799 20.608 6.39999 22.4 6.39999C24.192 6.39999 25.6 7.80799 25.6 9.59999C25.6 11.392 24.192 12.8 22.4 12.8ZM22.4 7.67999C21.312 7.67999 20.48 8.51199 20.48 9.59999C20.48 10.688 21.312 11.52 22.4 11.52C23.488 11.52 24.32 10.688 24.32 9.59999C24.32 8.51199 23.488 7.67999 22.4 7.67999Z" fill="black"/>
<path id="Vector_3" d="M22.4 25.6C20.608 25.6 19.2 24.192 19.2 22.4C19.2 20.608 20.608 19.2 22.4 19.2C24.192 19.2 25.6 20.608 25.6 22.4C25.6 24.192 24.192 25.6 22.4 25.6ZM22.4 20.48C21.312 20.48 20.48 21.312 20.48 22.4C20.48 23.488 21.312 24.32 22.4 24.32C23.488 24.32 24.32 23.488 24.32 22.4C24.32 21.312 23.488 20.48 22.4 20.48Z" fill="black"/>
<path id="Vector_4" d="M12.1645 16.5664L20.4077 20.688L19.8349 21.8323L11.5917 17.7107L12.1645 16.5664Z" fill="black"/>
<path id="Vector_5" d="M19.8355 10.1664L20.4077 11.312L12.1645 15.4323L11.5923 14.2867L19.8355 10.1664Z" fill="black"/>
</g>
</svg>
