<svg width="80" height="80" viewBox="0 0 80 80" fill="none" xmlns="http://www.w3.org/2000/svg">
<g id="fluent:calligraphy-pen-question-mark-20-regular" filter="url(#filter0_d_4_2)">
<g id="Group">
<path id="Vector" d="M76 22C76 17.2261 74.1036 12.6477 70.7279 9.27208C67.3523 5.89642 62.7739 4 58 4C53.2261 4 48.6477 5.89642 45.2721 9.27208C41.8964 12.6477 40 17.2261 40 22C40 26.7739 41.8964 31.3523 45.2721 34.7279C48.6477 38.1036 53.2261 40 58 40C62.7739 40 67.3523 38.1036 70.7279 34.7279C74.1036 31.3523 76 26.7739 76 22V22ZM58 29.52C58.663 29.52 59.2989 29.7834 59.7678 30.2522C60.2366 30.7211 60.5 31.357 60.5 32.02C60.5 32.683 60.2366 33.3189 59.7678 33.7878C59.2989 34.2566 58.663 34.52 58 34.52C57.337 34.52 56.7011 34.2566 56.2322 33.7878C55.7634 33.3189 55.5 32.683 55.5 32.02C55.5 31.357 55.7634 30.7211 56.2322 30.2522C56.7011 29.7834 57.337 29.52 58 29.52V29.52ZM58 10.012C62.124 10.012 65.412 13.396 65.412 17.812C65.412 20.156 64.556 21.444 62.504 23.084L61.396 23.944C60.412 24.72 60.08 25.144 60.012 25.736L59.968 26.36C59.879 26.8518 59.609 27.2924 59.2113 27.5951C58.8136 27.8978 58.317 28.0407 57.8193 27.9955C57.3215 27.9503 56.8588 27.7205 56.522 27.3511C56.1853 26.9818 55.9991 26.4998 56 26C56 23.72 56.84 22.464 58.864 20.848L59.976 19.988C61.128 19.068 61.416 18.62 61.416 17.812C61.416 15.58 59.888 14.012 58 14.012C56.024 14.012 54.564 15.476 54.584 17.792C54.5866 18.0546 54.5375 18.3152 54.4394 18.5589C54.3413 18.8025 54.1962 19.0245 54.0124 19.2121C53.641 19.5909 53.1344 19.8067 52.604 19.812C52.0736 19.8173 51.5628 19.6117 51.1839 19.2404C50.8051 18.869 50.5893 18.3624 50.584 17.832C50.544 13.284 53.808 10.012 58 10.012V10.012Z" fill="black"/>
<path id="Vector_2" d="M59.38 43.96C57.9316 44.0465 56.4781 43.9929 55.04 43.8L42 66.044V43.464C42.7626 43.0237 43.3586 42.3441 43.6955 41.5306C44.0325 40.7171 44.0916 39.8152 43.8637 38.9646C43.6358 38.1141 43.1336 37.3625 42.435 36.8265C41.7365 36.2904 40.8805 35.9999 40 35.9999C39.1195 35.9999 38.2635 36.2904 37.565 36.8265C36.8664 37.3625 36.3642 38.1141 36.1363 38.9646C35.9084 39.8152 35.9675 40.7171 36.3045 41.5306C36.6414 42.3441 37.2374 43.0237 38 43.464V66.044L24.864 43.64C24.3699 42.7973 24.0891 41.8467 24.0458 40.8707C24.0026 39.8948 24.1983 38.9231 24.616 38.04L31.264 24H36.088C35.9681 22.6694 35.9681 21.3306 36.088 20H26C25.4696 20 24.9609 19.7893 24.5858 19.4142C24.2107 19.0391 24 18.5304 24 18V10C24 9.46957 23.7893 8.96086 23.4142 8.58579C23.0391 8.21071 22.5304 8 22 8C21.4696 8 20.9609 8.21071 20.5858 8.58579C20.2107 8.96086 20 9.46957 20 10V18C20 19.5913 20.6321 21.1174 21.7574 22.2426C22.8826 23.3679 24.4087 24 26 24H26.84L21 36.32C20.3025 37.7926 19.9755 39.4133 20.0473 41.0411C20.1191 42.6689 20.5876 44.2545 21.412 45.66L35.264 69.288C35.7487 70.1135 36.4407 70.7979 37.2714 71.2735C38.1021 71.7491 39.0428 71.9993 40 71.9993C40.9572 71.9993 41.8979 71.7491 42.7286 71.2735C43.5593 70.7979 44.2513 70.1135 44.736 69.288L58.588 45.66C58.908 45.112 59.172 44.54 59.38 43.956V43.96Z" fill="black"/>
</g>
</g>
<defs>
<filter id="filter0_d_4_2" x="-4" y="0" width="88" height="88" filterUnits="userSpaceOnUse" color-interpolation-filters="sRGB">
<feFlood flood-opacity="0" result="BackgroundImageFix"/>
<feColorMatrix in="SourceAlpha" type="matrix" values="0 0 0 0 0 0 0 0 0 0 0 0 0 0 0 0 0 0 127 0" result="hardAlpha"/>
<feOffset dy="4"/>
<feGaussianBlur stdDeviation="2"/>
<feComposite in2="hardAlpha" operator="out"/>
<feColorMatrix type="matrix" values="0 0 0 0 0 0 0 0 0 0 0 0 0 0 0 0 0 0 0.25 0"/>
<feBlend mode="normal" in2="BackgroundImageFix" result="effect1_dropShadow_4_2"/>
<feBlend mode="normal" in="SourceGraphic" in2="effect1_dropShadow_4_2" result="shape"/>
</filter>
</defs>
</svg>
