<svg width="80" height="81" viewBox="0 0 80 81" fill="none" xmlns="http://www.w3.org/2000/svg">
<g id="menuButton">
<path id="Rectangle 1" d="M0 40.5C0 18.4086 17.9086 0.5 40 0.5V0.5C62.0914 0.5 80 18.4086 80 40.5V40.5C80 62.5914 62.0914 80.5 40 80.5V80.5C17.9086 80.5 0 62.5914 0 40.5V40.5Z" fill="#C4C4C4"/>
<g id="ic:round-restaurant-menu">
<path id="Vector" d="M29.1667 45.2222L37.0278 37.3611L19.8333 20.1944C18.5 18.8611 16.1944 19.2222 15.3611 20.9444C13.3889 25.0833 14.1111 30.1667 17.5278 33.6111L29.1667 45.2222ZM48 40.1944C52.25 42.1667 58.2222 40.7778 62.6389 36.3611C67.9444 31.0556 68.9722 23.4444 64.8889 19.3611C60.8333 15.3056 53.2222 16.3056 47.8889 21.6111C43.4722 26.0278 42.0833 32 44.0556 36.25L18.8889 61.4167C18.3695 61.936 18.0777 62.6405 18.0777 63.375C18.0777 64.1095 18.3695 64.814 18.8889 65.3333C19.4083 65.8527 20.1127 66.1445 20.8472 66.1445C21.5817 66.1445 22.2862 65.8527 22.8056 65.3333L40 48.1944L57.1667 65.3611C57.4238 65.6183 57.7291 65.8223 58.0652 65.9615C58.4012 66.1006 58.7613 66.1723 59.125 66.1723C59.4887 66.1723 59.8488 66.1006 60.1848 65.9615C60.5208 65.8223 60.8262 65.6183 61.0833 65.3611C61.3405 65.1039 61.5445 64.7986 61.6837 64.4626C61.8229 64.1266 61.8945 63.7665 61.8945 63.4028C61.8945 63.0391 61.8229 62.6789 61.6837 62.3429C61.5445 62.0069 61.3405 61.7016 61.0833 61.4444L43.9167 44.2778L48 40.1944V40.1944Z" fill="black"/>
</g>
</g>
</svg>
